<mxfile host="app.diagrams.net" modified="2023-12-28T07:52:48.892Z" agent="Mozilla/5.0 (Windows NT 10.0; Win64; x64) AppleWebKit/537.36 (KHTML, like Gecko) Chrome/119.0.0.0 Safari/537.36" etag="tdGm2mdD9sy96UTQkGEn" version="22.1.15" type="github">
  <diagram name="第 1 页" id="sFzYDHpx1Lzycq9LIBth">
    <mxGraphModel dx="1050" dy="557" grid="1" gridSize="10" guides="1" tooltips="1" connect="1" arrows="1" fold="1" page="1" pageScale="1" pageWidth="827" pageHeight="1169" math="0" shadow="0">
      <root>
        <mxCell id="0" />
        <mxCell id="1" parent="0" />
        <mxCell id="aVQLpjzn0uQK52kn7M1t-1" value="" style="shape=cylinder3;whiteSpace=wrap;html=1;boundedLbl=1;backgroundOutline=1;size=15;rotation=-90;" vertex="1" parent="1">
          <mxGeometry x="433.5" y="180.5" width="51" height="110" as="geometry" />
        </mxCell>
        <mxCell id="aVQLpjzn0uQK52kn7M1t-11" value="推动" style="html=1;shadow=0;dashed=0;align=center;verticalAlign=middle;shape=mxgraph.arrows2.arrow;dy=0.6;dx=40;notch=0;fontSize=16;" vertex="1" parent="1">
          <mxGeometry x="320" y="202" width="100" height="70" as="geometry" />
        </mxCell>
        <mxCell id="aVQLpjzn0uQK52kn7M1t-8" value="" style="group" vertex="1" connectable="0" parent="1">
          <mxGeometry x="420" y="227" width="90" height="20" as="geometry" />
        </mxCell>
        <mxCell id="aVQLpjzn0uQK52kn7M1t-3" value="" style="endArrow=classic;html=1;rounded=0;" edge="1" parent="aVQLpjzn0uQK52kn7M1t-8">
          <mxGeometry width="50" height="50" relative="1" as="geometry">
            <mxPoint as="sourcePoint" />
            <mxPoint x="90" as="targetPoint" />
          </mxGeometry>
        </mxCell>
        <mxCell id="aVQLpjzn0uQK52kn7M1t-6" value="" style="endArrow=classic;html=1;rounded=0;" edge="1" parent="aVQLpjzn0uQK52kn7M1t-8">
          <mxGeometry width="50" height="50" relative="1" as="geometry">
            <mxPoint y="10" as="sourcePoint" />
            <mxPoint x="90" y="10" as="targetPoint" />
          </mxGeometry>
        </mxCell>
        <mxCell id="aVQLpjzn0uQK52kn7M1t-7" value="" style="endArrow=classic;html=1;rounded=0;" edge="1" parent="aVQLpjzn0uQK52kn7M1t-8">
          <mxGeometry width="50" height="50" relative="1" as="geometry">
            <mxPoint y="20" as="sourcePoint" />
            <mxPoint x="90" y="20" as="targetPoint" />
          </mxGeometry>
        </mxCell>
        <mxCell id="aVQLpjzn0uQK52kn7M1t-10" value="心" style="ellipse;whiteSpace=wrap;html=1;fontSize=18;" vertex="1" parent="1">
          <mxGeometry x="230" y="208.5" width="100" height="54" as="geometry" />
        </mxCell>
      </root>
    </mxGraphModel>
  </diagram>
</mxfile>
